# xmcd
#
# Track frame offsets:
#	150
#	12451
#	23654
#	35256
#	46500
#	56793
#	66941
#	79082
#	91468
#	102450
#	113991
#	125842
#	138670
#	151159
#	163777
#	176426
#	190069
#	201805
#	215438
#	227326
#	237207
#	247368
#	256805
#	266224
#	276848
#	288534
#	299900
#	312209
#	324118
#	335391
#	346311
#
# Disc length: 4771 seconds
#
# Revision: 0
# Processed by: cddbd v1.5.2PL0 Copyright (c) Steve Scherf et al.
# Submitted via: audiograbber 1.83.01
#
DISCID=d112a11f
DTITLE=Rosalie Allen - The Versatile Rosalie Allen [CD2]
DYEAR=2010
DGENRE=Country
TTITLE0=Castaway
TTITLE1=Wide Rollin' Plains
TTITLE2=You Ain't Where You Come From Now
TTITLE3=My Old Familiar Heartaches
TTITLE4=If You Don't Believe I'm Leaving Just Count The Days I'm Gone
TTITLE5=Tomboy
TTITLE6=Yodel Boogie
TTITLE7=Hills Of Pride
TTITLE8=Just Wait 'Til I Get You Alone
TTITLE9=(Honey, Baby, Hurry) Bring Your Sweet Self Bacy To Me
TTITLE10=Belive Me I'm Leaving
TTITLE11=Mountain Polka
TTITLE12=Mama What'll I Do
TTITLE13=It Wasn't God Who Made Honky Tonk Angels
TTITLE14=It'd Surprise You
TTITLE15=Green As Grass
TTITLE16=I Wanna Sit
TTITLE17=Playhouse Of Love
TTITLE18=Yodeling Bird
TTITLE19=I Gotta Have You
TTITLE20=I've Paid For My Mistake
TTITLE21=I Laughed At Love
TTITLE22=Hard Hearted Woman
TTITLE23=Let Me Share Your Name
TTITLE24=Somebody
TTITLE25=Just A Sailor's Sweetheart
TTITLE26=My Adobe Hacienda
TTITLE27=Guitar Polka (Old Monterey) [Early Version]
TTITLE28=The I'll Keep On Loving You
TTITLE29=Rose Of The Alamo
TTITLE30=Chime Bells
EXTD=
EXTT0=
EXTT1=
EXTT2=
EXTT3=
EXTT4=
EXTT5=
EXTT6=
EXTT7=
EXTT8=
EXTT9=
EXTT10=
EXTT11=
EXTT12=
EXTT13=
EXTT14=
EXTT15=
EXTT16=
EXTT17=
EXTT18=
EXTT19=
EXTT20=
EXTT21=
EXTT22=
EXTT23=
EXTT24=
EXTT25=
EXTT26=
EXTT27=
EXTT28=
EXTT29=
EXTT30=
PLAYORDER=
